<svg width="113" height="122" viewBox="0 0 113 122" fill="none" xmlns="http://www.w3.org/2000/svg">
<path d="M76.146 84.2513C74.2771 88.2055 70.9854 91.4568 67.6907 94.2622C64.5301 96.95 61.0918 99.3156 57.5443 101.474C57.1512 101.712 52.9236 103.725 52.9236 104.084C52.9236 103.725 48.6959 101.712 48.3028 101.474C44.7616 99.3156 41.3233 96.95 38.1627 94.2622C34.8648 91.4599 31.5701 88.2055 29.7011 84.2513C25.9197 76.2717 31.6387 62.093 41.7414 62.7619C52.4462 63.474 52.9236 72.9183 52.9236 72.9183C52.9236 72.9183 53.4009 63.474 64.1058 62.7619C74.2084 62.093 79.9337 76.2748 76.146 84.2513Z" stroke="#1C5278" stroke-width="6" stroke-linecap="round" stroke-linejoin="round"/>
<path d="M109.128 51.2461H3V118.142H109.128V51.2461Z" stroke="#1C5278" stroke-width="6" stroke-linecap="round" stroke-linejoin="round"/>
<path d="M37.2954 26.9512H22.1102L3 51.246H109.128L90.0178 26.9512H74.8294" stroke="#1C5278" stroke-width="6" stroke-linecap="round" stroke-linejoin="round"/>
<path d="M54.9956 36.6338V33.6767C53.7725 33.5559 52.6836 33.2246 51.7258 32.6827C50.7679 32.1408 50.0222 31.3822 49.4887 30.4006C48.9552 29.419 48.6962 28.2083 48.7181 26.7622L48.7493 26.6848H52.4933C52.4933 27.6447 52.6524 28.422 52.9738 29.0134C53.2952 29.6048 53.7288 30.0352 54.2811 30.3015C54.8302 30.5709 55.4511 30.704 56.1438 30.704C56.8364 30.704 57.4822 30.5802 57.9908 30.3325C58.4994 30.0848 58.8894 29.7349 59.1608 29.2797C59.4292 28.8245 59.5664 28.2857 59.5664 27.6571C59.5664 27.0812 59.4479 26.5765 59.2076 26.1399C58.9674 25.7064 58.5867 25.31 58.0626 24.957C57.5384 24.604 56.8426 24.2696 55.9784 23.9568C54.5307 23.4614 53.3295 22.9164 52.3654 22.3188C51.4044 21.7212 50.6837 21.0059 50.2126 20.1668C49.7383 19.3276 49.5012 18.3182 49.5012 17.1353C49.5012 15.4478 50.0191 14.0667 51.0581 12.9954C52.0971 11.924 53.5136 11.2861 55.3045 11.0848V7.79639H57.7194V11.1313C59.4697 11.3852 60.8394 12.116 61.8285 13.3298C62.8175 14.5436 63.3042 16.1414 63.2949 18.12L63.1732 18.1665H59.4916C59.4916 16.8938 59.2139 15.8936 58.6585 15.166C58.1031 14.4383 57.3418 14.0729 56.3746 14.0729C55.3575 14.0729 54.5962 14.3485 54.0908 14.8997C53.5853 15.4509 53.3357 16.1909 53.3357 17.1198C53.3357 17.6958 53.448 18.2005 53.6727 18.6278C53.8973 19.0582 54.2749 19.4453 54.8021 19.789C55.3325 20.1327 56.0595 20.4702 56.9862 20.8046C58.4307 21.331 59.632 21.8977 60.5836 22.5015C61.5352 23.1084 62.2465 23.8206 62.7145 24.6381C63.1826 25.4555 63.4166 26.4526 63.4166 27.6262C63.4166 29.3633 62.8799 30.7567 61.8035 31.8033C60.7302 32.8499 59.2638 33.4692 57.4105 33.6612V36.6338H54.9956Z" fill="#1C5278"/>
<path d="M56.0625 41.4272C66.7546 41.4272 75.4223 32.8249 75.4223 22.2136C75.4223 11.6022 66.7546 3 56.0625 3C45.3703 3 36.7026 11.6022 36.7026 22.2136C36.7026 32.8249 45.3703 41.4272 56.0625 41.4272Z" stroke="#1C5278" stroke-width="6" stroke-linecap="round" stroke-linejoin="round"/>
<path d="M82.714 41.8699H32.0415" stroke="#1C5278" stroke-width="6" stroke-linecap="round" stroke-linejoin="round"/>
</svg>
