<svg width="151" height="96" viewBox="0 0 151 96" fill="none" xmlns="http://www.w3.org/2000/svg">
<path d="M125.384 3.80327L110.306 12.7616C115.683 17.6656 119.872 23.2753 123.307 29.3536C126.75 35.4461 129.426 41.9873 131.783 48.7518L146.936 39.7473C144.579 32.905 141.917 26.3101 138.488 20.2421C135.058 14.173 130.847 8.60499 125.384 3.80327ZM26.0215 0.232988L44.1747 11.0181C44.9878 11.4993 45.2581 12.5484 44.777 13.3621C44.653 13.573 44.4901 13.7467 44.3033 13.881C43.7198 14.3747 43.1501 14.8764 42.5941 15.3867C43.789 16.7084 45.0867 17.4707 46.7667 17.8981C48.9415 18.4513 51.7998 18.5118 55.7855 18.4678C58.001 16.2358 59.7318 14.9936 63.3175 14.0164C65.3564 13.4604 67.9564 13.0158 70.6678 12.693C73.6741 12.3347 76.897 12.117 79.6821 12.0558C82.3004 11.9987 84.5055 12.085 86.4695 12.2673C88.4793 12.4541 90.1941 12.7301 91.8187 13.0507C92.509 13.1873 93.2741 13.3518 94.033 13.5153C96.369 14.0181 98.6518 14.509 101.102 14.5896C102.711 14.6421 104.458 14.525 106.038 14.3587C106.314 14.3296 106.589 14.2981 106.86 14.2656C106.711 14.137 106.562 14.009 106.411 13.881C106.224 13.7467 106.061 13.573 105.936 13.3621C105.456 12.5484 105.726 11.4993 106.539 11.0181L124.692 0.232988L124.695 0.236988C125.301 -0.121298 126.092 -0.0784408 126.662 0.400416C132.916 5.66442 137.652 11.8278 141.461 18.5678C145.227 25.2313 148.075 32.4318 150.591 39.873C150.902 40.6444 150.611 41.5478 149.873 41.9838L131.72 52.7707L131.719 52.7684C131.617 52.8284 131.508 52.8787 131.391 52.9176C130.496 53.217 129.528 52.7347 129.228 51.8398L129.012 51.2021C127.767 52.5787 126.451 53.8061 125.047 54.9056C123.539 56.0873 121.937 57.1193 120.221 58.029C121.591 59.6776 122.061 61.661 121.853 63.577C121.729 64.7261 121.351 65.849 120.771 66.853C120.188 67.8644 119.403 68.7541 118.47 69.4301C117.174 70.3701 115.6 70.9198 113.882 70.8507C113.918 71.1661 113.936 71.4867 113.936 71.8113C113.936 74.1353 112.995 76.2398 111.471 77.7627C109.949 79.2855 107.844 80.2278 105.52 80.2278C104.922 80.2278 104.335 80.1633 103.765 80.0404C103.736 81.425 103.332 82.7713 102.63 83.9427C101.9 85.1581 100.848 86.1821 99.5592 86.8587C98.4833 87.4238 97.2524 87.7507 95.9181 87.7507C95.2284 87.7507 94.557 87.6598 93.9158 87.4901C93.7501 88.6936 93.2918 89.8318 92.6038 90.8084C91.7272 92.0518 90.4718 93.0364 88.9678 93.5638C88.1878 93.8376 87.353 93.9878 86.4832 93.9878C84.5204 93.9878 80.8244 93.6878 76.7233 92.801C74.257 92.2678 71.6347 91.5215 69.1375 90.4993L67.5158 92.5244L67.5187 92.5273C66.093 94.3073 64.069 95.3427 61.9587 95.5764C59.8524 95.8096 57.653 95.2398 55.8695 93.8124L55.8655 93.809L55.8627 93.8124C54.2695 92.5358 53.2724 90.781 52.9135 88.9136C52.0141 89.3936 51.0358 89.6838 50.0255 89.7958C47.9421 90.0267 45.7301 89.4815 43.833 88.2627C43.6278 88.1313 43.4398 87.9976 43.2684 87.8621C41.5564 86.5141 40.7084 84.5924 40.5581 82.6038C40.5433 82.4021 40.5358 82.1993 40.5347 81.9964C39.993 82.1661 39.4353 82.2815 38.8735 82.3438C36.6913 82.585 34.4135 82.0181 32.7221 80.7444C32.6764 80.7095 32.717 80.737 32.5541 80.6067L32.5507 80.6107C30.713 79.1467 29.773 77.1004 29.605 75.0118C29.493 73.6261 29.7278 72.2153 30.2707 70.9433C28.4353 70.9564 26.581 70.3644 25.0375 69.1296C23.2524 67.6998 22.2141 65.677 21.9815 63.5696C21.7484 61.4633 22.3181 59.2638 23.7461 57.4798L24.3038 56.7833C23.9021 55.8227 23.4998 55.0141 22.9307 54.2261C22.501 53.6313 21.9587 53.0181 21.2313 52.3238C20.801 52.8964 20.0381 53.157 19.3221 52.9176C19.2061 52.8787 19.097 52.8284 18.9953 52.7684L18.9941 52.7707L0.840972 41.9838C0.103258 41.5478 -0.187599 40.6444 0.123258 39.873C2.63869 32.4318 5.48726 25.2313 9.25297 18.5678C13.0621 11.8278 17.7975 5.66442 24.0524 0.400416C24.6221 -0.0784408 25.413 -0.121298 26.0187 0.236988L26.0215 0.232988ZM40.1381 17.7793C36.2513 21.8004 33.0747 26.2593 30.3798 31.0278C27.229 36.6033 24.7261 42.6233 22.5118 48.8718C23.9593 50.1284 24.9444 51.181 25.7027 52.2307C26.0861 52.7621 26.4038 53.2781 26.6861 53.8073L28.9038 51.0376L28.901 51.0347C30.3255 49.2553 32.3484 48.221 34.4575 47.9878C36.5621 47.7547 38.761 48.3233 40.5438 49.7501L40.5524 49.757L40.5547 49.7536L40.5644 49.7616L40.5667 49.7587L40.6438 49.8261C42.0113 50.9524 42.9261 52.4364 43.3615 54.0364L43.7815 53.509C46.5633 50.0187 49.893 49.1141 52.7398 49.797C53.8993 50.0753 54.9638 50.617 55.869 51.3558C56.7695 52.0918 57.5187 53.0216 58.0507 54.0798C59.0735 56.113 59.3215 58.6176 58.341 61.1233C60.1958 61.0804 62.077 61.653 63.6398 62.873C63.7198 62.9296 63.7947 62.9924 63.8638 63.0616C65.453 64.6507 66.4524 66.6736 66.6821 68.7473C66.9061 70.7707 66.4055 72.8278 65.0221 74.5844L64.8227 74.8376C66.5107 74.9153 68.1918 75.5078 69.6101 76.6438C71.3958 78.073 72.4335 80.0958 72.6673 82.2027C72.8747 84.0753 72.4473 86.0221 71.3467 87.685C73.369 88.4461 75.4604 89.0233 77.4461 89.453C81.2701 90.2798 84.6815 90.5593 86.4832 90.5593C86.9764 90.5593 87.4324 90.4804 87.8427 90.3364C88.6484 90.0535 89.3261 89.5187 89.805 88.8393C90.2821 88.1616 90.5564 87.3404 90.5564 86.4833C90.5564 86.3147 90.5461 86.1456 90.5255 85.9776C86.8678 85.0147 83.2347 83.7021 79.6261 82.0415C75.6992 80.2336 71.7987 78.0113 67.9255 75.3747C67.1455 74.8421 66.9444 73.7776 67.477 72.9976C68.0095 72.217 69.0741 72.0164 69.8541 72.549C73.5667 75.0764 77.3021 77.205 81.0592 78.9341C84.8033 80.6575 88.5678 81.9844 92.3512 82.9124C92.633 82.9821 92.8815 83.1175 93.0832 83.2987C93.4655 83.6181 93.9067 83.8758 94.3895 84.0536C94.8615 84.2273 95.3764 84.3221 95.9181 84.3221C96.6838 84.3221 97.3747 84.1427 97.9655 83.8324C98.693 83.4501 99.2861 82.873 99.697 82.1884C100.108 81.5027 100.338 80.705 100.338 79.8827C100.338 79.4067 100.261 78.925 100.097 78.4547C91.5507 75.6656 82.0718 70.961 71.6615 64.341C70.8627 63.8341 70.6261 62.7758 71.1324 61.977C71.6393 61.1787 72.6975 60.9416 73.4964 61.4484C83.9541 68.0981 93.4107 72.757 101.865 75.4233C102.099 75.4976 102.306 75.617 102.48 75.7696C102.9 76.0936 103.371 76.3513 103.874 76.5267C104.379 76.7033 104.933 76.7993 105.52 76.7993C106.898 76.7993 108.145 76.241 109.047 75.3381C109.95 74.4358 110.508 73.189 110.508 71.8113C110.508 71.3558 110.448 70.9158 110.335 70.4998C110.27 70.2604 110.19 70.0313 110.096 69.8136C107.672 68.9496 104.022 67.245 99.1484 64.701C93.8255 61.9221 87.0678 58.1616 78.8764 53.4193C78.0592 52.9456 77.7804 51.8993 78.2535 51.0821C78.7267 50.265 79.7735 49.9861 80.5907 50.4593C88.817 55.2221 95.5295 58.9604 100.729 61.6741C105.859 64.3524 109.541 66.0524 111.774 66.7747C111.874 66.8038 111.974 66.8421 112.071 66.8913C113.76 67.7416 115.322 67.4844 116.462 66.6581C117.013 66.2587 117.473 65.7381 117.812 65.1518C118.155 64.5581 118.378 63.8941 118.452 63.2153C118.606 61.7901 118.056 60.2838 116.488 59.2467L116.484 59.2438L116.474 59.2376L116.47 59.2341L116.467 59.2324L116.464 59.2307L116.46 59.2278L116.432 59.2078L116.431 59.2073C116.408 59.1907 116.386 59.1736 116.364 59.1564L116.362 59.1541L116.327 59.1261L116.326 59.1244L116.321 59.121L116.317 59.117L116.312 59.1136L116.308 59.1101L116.134 58.9621C116.091 58.9296 116.049 58.8947 116.01 58.8576C113.191 56.4793 110.367 54.101 107.393 51.7244C104.309 49.2604 101.079 46.8096 97.557 44.3861C90.629 39.6164 82.4341 34.8518 74.2147 30.0867C73.393 30.2318 72.5673 30.401 71.721 30.6918C70.693 31.045 69.6044 31.5873 68.3935 32.5056C67.0918 33.493 65.5644 34.9776 63.9895 36.5084C62.393 38.0604 60.7478 39.6593 59.1301 40.9444C57.3964 42.3204 55.6884 43.3438 54.0238 43.9084C52.2004 44.5261 50.4307 44.6027 48.7341 44.0136L48.7284 44.0113L48.7273 44.0136C46.8907 43.3753 45.1878 41.9398 44.2827 39.9187C43.5301 38.2387 43.3284 36.1718 44.0661 33.8536C45.3193 29.917 49.3655 25.309 52.5478 21.8861C49.8798 21.8484 47.7484 21.6838 45.9227 21.2193C43.5741 20.6221 41.7741 19.577 40.1381 17.7793ZM40.4078 12.7616L25.3295 3.80327C19.8661 8.60499 15.6558 14.173 12.2261 20.2421C8.79697 26.3101 6.13469 32.905 3.77754 39.7473L18.6478 48.5833C18.7095 48.4238 18.797 48.2718 18.9095 48.1313C19.0141 48.001 19.1347 47.8901 19.2655 47.7987C21.541 41.3736 24.1255 35.1593 27.4067 29.3536C30.8415 23.2753 35.0307 17.6656 40.4078 12.7616ZM34.0227 65.7004C34.0947 65.6113 34.1741 65.5307 34.2587 65.4598L39.0233 59.481C39.069 59.4016 39.1215 59.3244 39.1815 59.2513L39.1833 59.2496L39.189 59.2541C40.013 58.2147 40.3404 56.9261 40.2027 55.6856C40.0684 54.4724 39.485 53.3096 38.4838 52.4764L38.397 52.4101L38.4004 52.4061L38.3947 52.401L38.3958 52.3998C37.3581 51.5776 36.0718 51.2518 34.8324 51.3884C33.5907 51.5256 32.401 52.133 31.5655 53.177L31.5638 53.1758L31.5495 53.193L31.5478 53.1918L27.6798 58.0233C27.6273 58.101 27.5684 58.1747 27.5038 58.2438L26.4107 59.609C25.5758 60.6513 25.2444 61.9473 25.3821 63.1947C25.5204 64.441 26.1261 65.6318 27.1667 66.465C28.209 67.2987 29.5055 67.6301 30.753 67.4918C31.9958 67.3541 33.1861 66.7461 34.0227 65.7004ZM57.7301 78.309C57.789 78.1764 57.8655 78.049 57.961 77.9301C58.145 77.7004 58.3387 77.4833 58.5415 77.2781L62.3307 72.4684C63.1227 71.4627 63.409 70.2833 63.2804 69.1227C63.1393 67.8478 62.5078 66.5781 61.4975 65.5444C60.465 64.7547 59.2004 64.4393 57.9861 64.5718C56.861 64.6947 55.7833 65.2021 54.9804 66.0713L45.3335 78.177C45.2735 78.3358 45.1884 78.4884 45.0781 78.629C44.9804 78.753 44.8935 78.8747 44.8164 78.9941C44.1981 79.957 43.885 81.1753 43.9735 82.3495C44.0558 83.4381 44.4981 84.4724 45.3844 85.1707C45.4855 85.2501 45.585 85.3215 45.6815 85.3838C46.921 86.1798 48.3393 86.5393 49.6501 86.3941C50.805 86.2661 51.8833 85.7318 52.6638 84.7404L53.8455 83.2404C54.0575 82.8678 54.3015 82.5078 54.5775 82.1627C54.6958 82.0153 54.8335 81.8924 54.9838 81.7947L57.7301 78.309ZM56.6821 85.1718C56.265 86.0204 56.113 86.9615 56.2141 87.877C56.3518 89.1204 56.9604 90.3107 58.005 91.1478L58.0027 91.1507C59.0438 91.9827 60.3381 92.3135 61.5838 92.1753C62.8267 92.0381 64.0175 91.4296 64.8541 90.385L64.8575 90.3873L67.1833 87.4827C67.2478 87.3816 67.3227 87.289 67.405 87.2056L68.2387 86.1638C69.073 85.1216 69.4044 83.8256 69.2661 82.5776C69.1278 81.3318 68.5221 80.1415 67.481 79.3084C66.4393 78.4741 65.1433 78.1421 63.8958 78.2804C62.877 78.3936 61.893 78.8233 61.1107 79.5501L56.6821 85.1718ZM51.9684 64.3604C51.997 64.317 52.0273 64.2747 52.0598 64.2336L52.0918 64.1936C52.125 64.1518 52.1598 64.1124 52.1958 64.0747L52.1998 64.0701L54.0593 61.7364C55.773 59.5856 55.8461 57.3078 54.9975 55.6198C54.6798 54.9878 54.2387 54.437 53.7124 54.0078C53.1907 53.5816 52.5901 53.2718 51.9495 53.1181C50.2981 52.7221 48.281 53.353 46.4604 55.6381L34.0673 71.1907L33.9913 71.2901C33.2684 72.2496 32.9204 73.5073 33.0198 74.7438C33.1164 75.9421 33.6467 77.109 34.6804 77.9324L34.677 77.9364L34.6804 77.9387C34.7564 77.9998 34.645 77.9073 34.7844 78.0124C35.7787 78.761 37.1553 79.0907 38.4981 78.9421C39.717 78.8073 40.8838 78.2707 41.6661 77.2884L51.9684 64.3604ZM110.083 17.2753C109.151 17.417 107.887 17.6016 106.386 17.7593C104.691 17.9381 102.796 18.0627 100.995 18.0038C98.2015 17.9124 95.7907 17.3936 93.3232 16.8627C92.6398 16.7158 91.9512 16.5673 91.1627 16.4118C89.5827 16.0993 87.9615 15.8353 86.1615 15.6684C84.3164 15.497 82.2347 15.4158 79.749 15.4707C77.1318 15.5278 74.033 15.741 71.0695 16.0941C68.4701 16.4038 66.0353 16.8141 64.2147 17.3101C60.6084 18.2936 59.2513 19.7381 56.3421 22.8364L56.2193 22.9673C53.1547 26.2313 48.4947 31.1947 47.3198 34.885C46.8633 36.3204 46.9673 37.5547 47.4021 38.5261C47.9027 39.6427 48.841 40.4353 49.8524 40.7861L49.8518 40.7884C50.7804 41.109 51.813 41.045 52.9255 40.6678C54.1993 40.2364 55.5667 39.405 57.001 38.2667C58.5078 37.0696 60.0798 35.5416 61.6061 34.0581C63.2375 32.4718 64.8204 30.9336 66.3318 29.7878C67.8953 28.601 69.2941 27.9038 70.609 27.4518C71.8981 27.0084 73.0764 26.8084 74.2541 26.609C74.6324 26.5467 75.0347 26.6096 75.3924 26.817L75.4581 26.8553C83.8792 31.7364 92.2987 36.617 99.4987 41.5741C103.127 44.0713 106.411 46.561 109.522 49.0467C112.249 51.2256 114.855 53.4096 117.446 55.5947C119.453 54.6341 121.274 53.5227 122.944 52.2141C124.662 50.8684 126.235 49.3067 127.702 47.4793C125.611 41.729 123.25 36.1878 120.334 31.0278C117.526 26.0593 114.196 21.4267 110.083 17.2753Z" fill="#1C5278"/>
</svg>
